<svg xmlns="http://www.w3.org/2000/svg" xmlns:xlink="http://www.w3.org/1999/xlink" version="1.1" x="0px" y="0px" viewBox="0 0 100 125" enable-background="new 0 0 100 100" xml:space="preserve"><path fill-rule="evenodd" clip-rule="evenodd" d="M67.007,74.215H51.5H35.993c-4.228-6.86-6.86-16.498-6.86-27.172  c0-7.682,1.777-14.499,4.485-20.165c2.476,1.818,5.439,3.278,8.73,4.273c-0.059,0.421-0.091,0.851-0.091,1.289  c0,5.104,4.138,9.242,9.242,9.242s9.242-4.138,9.242-9.242c0-0.255-0.013-0.506-0.033-0.756c3.4-0.803,6.505-2.092,9.158-3.756  c2.434,5.452,3.999,11.902,3.999,19.116C73.866,57.717,71.235,67.354,67.007,74.215z M51.5,48.519c-4.902,0-8.875,3.973-8.875,8.875  s3.973,8.875,8.875,8.875c4.901,0,8.875-3.974,8.875-8.875S56.401,48.519,51.5,48.519z M51.5,65.485  c-4.469,0-8.092-3.622-8.092-8.092c0-4.469,3.623-8.091,8.092-8.091s8.092,3.623,8.092,8.091  C59.592,61.863,55.969,65.485,51.5,65.485z M51.5,64.702c1.386,0,2.676-0.392,3.78-1.062c-0.592-1.025-1.61-2.795-2.344-4.068  c-0.412,0.272-0.905,0.432-1.437,0.432s-1.024-0.159-1.437-0.432c-0.733,1.273-1.751,3.043-2.343,4.068  C48.825,64.311,50.115,64.702,51.5,64.702z M47.855,51.065c-2.188,1.262-3.664,3.62-3.664,6.327c1.248-0.002,3.272,0,4.699,0.002  v-0.001h0c0-0.974,0.534-1.821,1.325-2.27C49.473,53.852,48.449,52.091,47.855,51.065z M49.673,57.394  c0,1.01,0.818,1.827,1.827,1.827c1.01,0,1.827-0.817,1.827-1.827c0-1.009-0.817-1.827-1.827-1.827  C50.491,55.566,49.673,56.385,49.673,57.394z M55.144,51.064c-0.59,1.015-1.615,2.778-2.359,4.059  c0.791,0.448,1.326,1.297,1.326,2.271v0.001c1.426-0.002,3.451-0.004,4.698-0.002C58.809,54.685,57.332,52.326,55.144,51.064z   M57.97,32.439c0,3.573-2.896,6.47-6.47,6.47s-6.47-2.896-6.47-6.47s2.896-6.47,6.47-6.47S57.97,28.866,57.97,32.439z M51.5,23.197  c-4.048,0-7.486,2.604-8.737,6.227c-3.157-0.91-6.023-2.245-8.462-3.914C38.954,16.588,45.9,10.781,51.5,9.333  c5.802,1.5,13.049,7.678,17.693,17.153c-2.585,1.518-5.563,2.69-8.805,3.423C59.288,26.036,55.727,23.197,51.5,23.197z   M62.961,77.173H40.04c-1.021,0-1.849-0.828-1.849-1.849h26.618C64.809,76.345,63.981,77.173,62.961,77.173z M59.633,78.097  c0,4.084-8.133,12.569-8.133,12.569s-8.133-8.485-8.133-12.569C43.552,78.097,59.264,78.097,59.633,78.097z"/></svg>